<svg xmlns="http://www.w3.org/2000/svg" width="2640" height="2967" viewBox="0 0 2640 2967"><style>text{font-family:Arial,sans-serif;fill:#000} .title{font-size:20px;font-weight:bold}.field{font-size:15px}.rel{font-size:13px}</style><rect width="100%" height="100%" fill="white"/><text x="80" y="42" class="title">internaltest1 — Complete EER Diagram</text><text x="80" y="68" class="field">PK: primary key · FK: foreign key · UK: unique key · ? nullable · all columns shown</text><path d="M 720 1627 H 665 V 1652 H 610" fill="none" stroke="black" stroke-width="1.3"/><circle cx="720" cy="1627" r="3" fill="black"/><text x="725" y="1621" class="rel">1</text><text x="615" y="1646" class="rel">0..1</text><path d="M 720 181 H 674 V 1677 H 610" fill="none" stroke="black" stroke-width="1.3"/><circle cx="720" cy="181" r="3" fill="black"/><text x="725" y="175" class="rel">1</text><text x="615" y="1671" class="rel">0..N</text><path d="M 1250 1627 H 1323 V 1652 H 1360" fill="none" stroke="black" stroke-width="1.3"/><circle cx="1250" cy="1627" r="3" fill="black"/><text x="1255" y="1621" class="rel">1</text><text x="1365" y="1646" class="rel">0..1</text><path d="M 1250 181 H 1332 V 1677 H 1360" fill="none" stroke="black" stroke-width="1.3"/><circle cx="1250" cy="181" r="3" fill="black"/><text x="1255" y="175" class="rel">1</text><text x="1365" y="1671" class="rel">0..N</text><path d="M 1250 181 H 1625 V 181 H 2000" fill="none" stroke="black" stroke-width="1.3"/><circle cx="1250" cy="181" r="3" fill="black"/><text x="1255" y="175" class="rel">1</text><text x="2005" y="175" class="rel">0..N</text><path d="M 1250 181 H 1325 V 929 H 1250" fill="none" stroke="black" stroke-width="1.3"/><circle cx="1250" cy="181" r="3" fill="black"/><text x="1255" y="175" class="rel">1</text><text x="1255" y="923" class="rel">0..1</text><path d="M 1250 181 H 1275 V 1652 H 1250" fill="none" stroke="black" stroke-width="1.3"/><circle cx="1250" cy="181" r="3" fill="black"/><text x="1255" y="175" class="rel">1</text><text x="1255" y="1646" class="rel">0..N</text><path d="M 1890 904 H 1972 V 954 H 2000" fill="none" stroke="black" stroke-width="1.3"/><circle cx="1890" cy="904" r="3" fill="black"/><text x="1895" y="898" class="rel">1</text><text x="2005" y="948" class="rel">0..N</text><path d="M 1250 181 H 1625 V 929 H 2000" fill="none" stroke="black" stroke-width="1.3"/><circle cx="1250" cy="181" r="3" fill="black"/><text x="1255" y="175" class="rel">1</text><text x="2005" y="923" class="rel">0..N</text><path d="M 1250 181 H 1314 V 929 H 1360" fill="none" stroke="black" stroke-width="1.3"/><circle cx="1250" cy="181" r="3" fill="black"/><text x="1255" y="175" class="rel">1</text><text x="1365" y="923" class="rel">0..1</text><path d="M 1250 1627 H 1643 V 1652 H 2000" fill="none" stroke="black" stroke-width="1.3"/><circle cx="1250" cy="1627" r="3" fill="black"/><text x="1255" y="1621" class="rel">1</text><text x="2005" y="1646" class="rel">0..N</text><path d="M 1250 181 H 1652 V 1677 H 2000" fill="none" stroke="black" stroke-width="1.3"/><circle cx="1250" cy="181" r="3" fill="black"/><text x="1255" y="175" class="rel">1</text><text x="2005" y="1671" class="rel">0..N</text><path d="M 720 181 H 665 V 156 H 610" fill="none" stroke="black" stroke-width="1.3"/><circle cx="720" cy="181" r="3" fill="black"/><text x="725" y="175" class="rel">1</text><text x="615" y="150" class="rel">0..1</text><path d="M 720 181 H 674 V 904 H 610" fill="none" stroke="black" stroke-width="1.3"/><circle cx="720" cy="181" r="3" fill="black"/><text x="725" y="175" class="rel">1</text><text x="615" y="898" class="rel">0..1</text><path d="M 1250 181 H 1323 V 181 H 1360" fill="none" stroke="black" stroke-width="1.3"/><circle cx="1250" cy="181" r="3" fill="black"/><text x="1255" y="175" class="rel">1</text><text x="1365" y="175" class="rel">0..N</text><rect x="80" y="100" width="530" height="608" fill="white" stroke="black" stroke-width="1.5"/><text x="92" y="127" class="title">new_application_fap_stage</text><path d="M 80 138 H 610" stroke="black"/><text x="90" y="159" class="field">FK/UK</text><text x="165" y="159" class="field">application_id</text><text x="415" y="159" class="field">char(36)</text><text x="90" y="184" class="field"></text><text x="165" y="184" class="field">customer_category</text><text x="415" y="184" class="field">varchar(30) ?</text><text x="90" y="209" class="field"></text><text x="165" y="209" class="field">existing_customer_id</text><text x="415" y="209" class="field">char(36) ?</text><text x="90" y="234" class="field"></text><text x="165" y="234" class="field">application_date</text><text x="415" y="234" class="field">date ?</text><text x="90" y="259" class="field"></text><text x="165" y="259" class="field">fap_registration_number</text><text x="415" y="259" class="field">varchar(80) ?</text><text x="90" y="284" class="field"></text><text x="165" y="284" class="field">company_name</text><text x="415" y="284" class="field">text ?</text><text x="90" y="309" class="field"></text><text x="165" y="309" class="field">company_type</text><text x="415" y="309" class="field">text ?</text><text x="90" y="334" class="field"></text><text x="165" y="334" class="field">nib</text><text x="415" y="334" class="field">text ?</text><text x="90" y="359" class="field"></text><text x="165" y="359" class="field">npwp</text><text x="415" y="359" class="field">text ?</text><text x="90" y="384" class="field"></text><text x="165" y="384" class="field">establishment_act_no</text><text x="415" y="384" class="field">text ?</text><text x="90" y="409" class="field"></text><text x="165" y="409" class="field">establishment_date</text><text x="415" y="409" class="field">date ?</text><text x="90" y="434" class="field"></text><text x="165" y="434" class="field">branch_code</text><text x="415" y="434" class="field">text ?</text><text x="90" y="459" class="field"></text><text x="165" y="459" class="field">company_address</text><text x="415" y="459" class="field">text ?</text><text x="90" y="484" class="field"></text><text x="165" y="484" class="field">city</text><text x="415" y="484" class="field">text ?</text><text x="90" y="509" class="field"></text><text x="165" y="509" class="field">province</text><text x="415" y="509" class="field">text ?</text><text x="90" y="534" class="field"></text><text x="165" y="534" class="field">postal_code</text><text x="415" y="534" class="field">text ?</text><text x="90" y="559" class="field"></text><text x="165" y="559" class="field">experience_years</text><text x="415" y="559" class="field">decimal(20,2) ?</text><text x="90" y="584" class="field"></text><text x="165" y="584" class="field">experience_months</text><text x="415" y="584" class="field">decimal(20,2) ?</text><text x="90" y="609" class="field"></text><text x="165" y="609" class="field">payload</text><text x="415" y="609" class="field">json</text><text x="90" y="634" class="field">PK</text><text x="165" y="634" class="field">id</text><text x="415" y="634" class="field">char(36)</text><text x="90" y="659" class="field"></text><text x="165" y="659" class="field">created_at</text><text x="415" y="659" class="field">timestamp(3)</text><text x="90" y="684" class="field"></text><text x="165" y="684" class="field">updated_at</text><text x="415" y="684" class="field">timestamp(3) ?</text><rect x="720" y="100" width="530" height="433" fill="white" stroke="black" stroke-width="1.5"/><text x="732" y="127" class="title">all_applications</text><path d="M 720 138 H 1250" stroke="black"/><text x="730" y="159" class="field">UK</text><text x="805" y="159" class="field">sequence_id</text><text x="1055" y="159" class="field">bigint unsigned</text><text x="730" y="184" class="field">PK/UK</text><text x="805" y="184" class="field">id</text><text x="1055" y="184" class="field">char(36)</text><text x="730" y="209" class="field"></text><text x="805" y="209" class="field">customer_id</text><text x="1055" y="209" class="field">char(36)</text><text x="730" y="234" class="field"></text><text x="805" y="234" class="field">company_name</text><text x="1055" y="234" class="field">varchar(255)</text><text x="730" y="259" class="field"></text><text x="805" y="259" class="field">company_type</text><text x="1055" y="259" class="field">varchar(50) ?</text><text x="730" y="284" class="field">UK</text><text x="805" y="284" class="field">fap_number</text><text x="1055" y="284" class="field">varchar(80) ?</text><text x="730" y="309" class="field"></text><text x="805" y="309" class="field">branch_code</text><text x="1055" y="309" class="field">varchar(80) ?</text><text x="730" y="334" class="field"></text><text x="805" y="334" class="field">financing_value</text><text x="1055" y="334" class="field">decimal(20,2) ?</text><text x="730" y="359" class="field"></text><text x="805" y="359" class="field">tenor_months</text><text x="1055" y="359" class="field">int ?</text><text x="730" y="384" class="field"></text><text x="805" y="384" class="field">status</text><text x="1055" y="384" class="field">varchar(50)</text><text x="730" y="409" class="field"></text><text x="805" y="409" class="field">verified_docs</text><text x="1055" y="409" class="field">int</text><text x="730" y="434" class="field"></text><text x="805" y="434" class="field">total_docs</text><text x="1055" y="434" class="field">int</text><text x="730" y="459" class="field"></text><text x="805" y="459" class="field">application_date</text><text x="1055" y="459" class="field">date</text><text x="730" y="484" class="field"></text><text x="805" y="484" class="field">created_at</text><text x="1055" y="484" class="field">timestamp(3)</text><text x="730" y="509" class="field"></text><text x="805" y="509" class="field">updated_at</text><text x="1055" y="509" class="field">timestamp(3) ?</text><rect x="1360" y="100" width="530" height="333" fill="white" stroke="black" stroke-width="1.5"/><text x="1372" y="127" class="title">project_contract</text><path d="M 1360 138 H 1890" stroke="black"/><text x="1370" y="159" class="field">PK</text><text x="1445" y="159" class="field">id</text><text x="1695" y="159" class="field">char(36)</text><text x="1370" y="184" class="field">FK</text><text x="1445" y="184" class="field">application_id</text><text x="1695" y="184" class="field">char(36)</text><text x="1370" y="209" class="field"></text><text x="1445" y="209" class="field">row_position</text><text x="1695" y="209" class="field">int</text><text x="1370" y="234" class="field"></text><text x="1445" y="234" class="field">project_owner</text><text x="1695" y="234" class="field">text ?</text><text x="1370" y="259" class="field"></text><text x="1445" y="259" class="field">project_location</text><text x="1695" y="259" class="field">text ?</text><text x="1370" y="284" class="field"></text><text x="1445" y="284" class="field">project_role</text><text x="1695" y="284" class="field">text ?</text><text x="1370" y="309" class="field"></text><text x="1445" y="309" class="field">contract_status</text><text x="1695" y="309" class="field">text ?</text><text x="1370" y="334" class="field"></text><text x="1445" y="334" class="field">payload</text><text x="1695" y="334" class="field">json</text><text x="1370" y="359" class="field"></text><text x="1445" y="359" class="field">created_at</text><text x="1695" y="359" class="field">timestamp(3)</text><text x="1370" y="384" class="field"></text><text x="1445" y="384" class="field">updated_at</text><text x="1695" y="384" class="field">timestamp(3) ?</text><text x="1370" y="409" class="field"></text><text x="1445" y="409" class="field">deleted_at</text><text x="1695" y="409" class="field">timestamp(3) ?</text><rect x="2000" y="100" width="530" height="433" fill="white" stroke="black" stroke-width="1.5"/><text x="2012" y="127" class="title">bank_facilities</text><path d="M 2000 138 H 2530" stroke="black"/><text x="2010" y="159" class="field">PK</text><text x="2085" y="159" class="field">id</text><text x="2335" y="159" class="field">char(36)</text><text x="2010" y="184" class="field">FK</text><text x="2085" y="184" class="field">application_id</text><text x="2335" y="184" class="field">char(36)</text><text x="2010" y="209" class="field"></text><text x="2085" y="209" class="field">row_position</text><text x="2335" y="209" class="field">int</text><text x="2010" y="234" class="field"></text><text x="2085" y="234" class="field">bank_or_fin_institution</text><text x="2335" y="234" class="field">text ?</text><text x="2010" y="259" class="field"></text><text x="2085" y="259" class="field">currency</text><text x="2335" y="259" class="field">text ?</text><text x="2010" y="284" class="field"></text><text x="2085" y="284" class="field">credit_facility</text><text x="2335" y="284" class="field">decimal(20,2) ?</text><text x="2010" y="309" class="field"></text><text x="2085" y="309" class="field">monthly_installment</text><text x="2335" y="309" class="field">decimal(20,2) ?</text><text x="2010" y="334" class="field"></text><text x="2085" y="334" class="field">year_started</text><text x="2335" y="334" class="field">decimal(20,2) ?</text><text x="2010" y="359" class="field"></text><text x="2085" y="359" class="field">interest_rate</text><text x="2335" y="359" class="field">decimal(20,2) ?</text><text x="2010" y="384" class="field"></text><text x="2085" y="384" class="field">payment_record</text><text x="2335" y="384" class="field">text ?</text><text x="2010" y="409" class="field"></text><text x="2085" y="409" class="field">facility_status</text><text x="2335" y="409" class="field">text ?</text><text x="2010" y="434" class="field"></text><text x="2085" y="434" class="field">payload</text><text x="2335" y="434" class="field">json</text><text x="2010" y="459" class="field"></text><text x="2085" y="459" class="field">created_at</text><text x="2335" y="459" class="field">timestamp(3)</text><text x="2010" y="484" class="field"></text><text x="2085" y="484" class="field">updated_at</text><text x="2335" y="484" class="field">timestamp(3) ?</text><text x="2010" y="509" class="field"></text><text x="2085" y="509" class="field">deleted_at</text><text x="2335" y="509" class="field">timestamp(3) ?</text><rect x="80" y="848" width="530" height="583" fill="white" stroke="black" stroke-width="1.5"/><text x="92" y="875" class="title">new_application_pre_analisis</text><path d="M 80 886 H 610" stroke="black"/><text x="90" y="907" class="field">FK/UK</text><text x="165" y="907" class="field">application_id</text><text x="415" y="907" class="field">char(36)</text><text x="90" y="932" class="field"></text><text x="165" y="932" class="field">skt_no</text><text x="415" y="932" class="field">text ?</text><text x="90" y="957" class="field"></text><text x="165" y="957" class="field">sppkp_no</text><text x="415" y="957" class="field">text ?</text><text x="90" y="982" class="field"></text><text x="165" y="982" class="field">phone_fax</text><text x="415" y="982" class="field">text ?</text><text x="90" y="1007" class="field"></text><text x="165" y="1007" class="field">email</text><text x="415" y="1007" class="field">text ?</text><text x="90" y="1032" class="field"></text><text x="165" y="1032" class="field">website</text><text x="415" y="1032" class="field">text ?</text><text x="90" y="1057" class="field"></text><text x="165" y="1057" class="field">main_business</text><text x="415" y="1057" class="field">text ?</text><text x="90" y="1082" class="field"></text><text x="165" y="1082" class="field">location_status</text><text x="415" y="1082" class="field">text ?</text><text x="90" y="1107" class="field"></text><text x="165" y="1107" class="field">repayment_source</text><text x="415" y="1107" class="field">text ?</text><text x="90" y="1132" class="field"></text><text x="165" y="1132" class="field">latest_deed_no</text><text x="415" y="1132" class="field">text ?</text><text x="90" y="1157" class="field"></text><text x="165" y="1157" class="field">latest_deed_date</text><text x="415" y="1157" class="field">date ?</text><text x="90" y="1182" class="field"></text><text x="165" y="1182" class="field">industry_segment</text><text x="415" y="1182" class="field">text ?</text><text x="90" y="1207" class="field"></text><text x="165" y="1207" class="field">business_role</text><text x="415" y="1207" class="field">text ?</text><text x="90" y="1232" class="field"></text><text x="165" y="1232" class="field">asset_summary_he_liu_gong</text><text x="415" y="1232" class="field">decimal(20,2) ?</text><text x="90" y="1257" class="field"></text><text x="165" y="1257" class="field">asset_summary_truck_liu_gong</text><text x="415" y="1257" class="field">decimal(20,2) ?</text><text x="90" y="1282" class="field"></text><text x="165" y="1282" class="field">asset_summary_he_non_liu_gong</text><text x="415" y="1282" class="field">decimal(20,2) ?</text><text x="90" y="1307" class="field"></text><text x="165" y="1307" class="field">asset_summary_truck_non_liu_gong</text><text x="415" y="1307" class="field">decimal(20,2) ?</text><text x="90" y="1332" class="field"></text><text x="165" y="1332" class="field">payload</text><text x="415" y="1332" class="field">json</text><text x="90" y="1357" class="field">PK</text><text x="165" y="1357" class="field">id</text><text x="415" y="1357" class="field">char(36)</text><text x="90" y="1382" class="field"></text><text x="165" y="1382" class="field">created_at</text><text x="415" y="1382" class="field">timestamp(3)</text><text x="90" y="1407" class="field"></text><text x="165" y="1407" class="field">updated_at</text><text x="415" y="1407" class="field">timestamp(3) ?</text><rect x="720" y="848" width="530" height="533" fill="white" stroke="black" stroke-width="1.5"/><text x="732" y="875" class="title">customer_pic</text><path d="M 720 886 H 1250" stroke="black"/><text x="730" y="907" class="field">PK</text><text x="805" y="907" class="field">id</text><text x="1055" y="907" class="field">char(36)</text><text x="730" y="932" class="field">FK/UK</text><text x="805" y="932" class="field">application_id</text><text x="1055" y="932" class="field">char(36)</text><text x="730" y="957" class="field"></text><text x="805" y="957" class="field">customer_id</text><text x="1055" y="957" class="field">char(36)</text><text x="730" y="982" class="field"></text><text x="805" y="982" class="field">pic_name</text><text x="1055" y="982" class="field">text ?</text><text x="730" y="1007" class="field"></text><text x="805" y="1007" class="field">position</text><text x="1055" y="1007" class="field">text ?</text><text x="730" y="1032" class="field"></text><text x="805" y="1032" class="field">phone</text><text x="1055" y="1032" class="field">text ?</text><text x="730" y="1057" class="field"></text><text x="805" y="1057" class="field">email</text><text x="1055" y="1057" class="field">text ?</text><text x="730" y="1082" class="field"></text><text x="805" y="1082" class="field">country</text><text x="1055" y="1082" class="field">text ?</text><text x="730" y="1107" class="field"></text><text x="805" y="1107" class="field">province</text><text x="1055" y="1107" class="field">text ?</text><text x="730" y="1132" class="field"></text><text x="805" y="1132" class="field">city</text><text x="1055" y="1132" class="field">text ?</text><text x="730" y="1157" class="field"></text><text x="805" y="1157" class="field">district</text><text x="1055" y="1157" class="field">text ?</text><text x="730" y="1182" class="field"></text><text x="805" y="1182" class="field">village</text><text x="1055" y="1182" class="field">text ?</text><text x="730" y="1207" class="field"></text><text x="805" y="1207" class="field">rt</text><text x="1055" y="1207" class="field">text ?</text><text x="730" y="1232" class="field"></text><text x="805" y="1232" class="field">rw</text><text x="1055" y="1232" class="field">text ?</text><text x="730" y="1257" class="field"></text><text x="805" y="1257" class="field">current_address</text><text x="1055" y="1257" class="field">text ?</text><text x="730" y="1282" class="field"></text><text x="805" y="1282" class="field">postal_code</text><text x="1055" y="1282" class="field">text ?</text><text x="730" y="1307" class="field"></text><text x="805" y="1307" class="field">payload</text><text x="1055" y="1307" class="field">json</text><text x="730" y="1332" class="field"></text><text x="805" y="1332" class="field">created_at</text><text x="1055" y="1332" class="field">timestamp(3)</text><text x="730" y="1357" class="field"></text><text x="805" y="1357" class="field">updated_at</text><text x="1055" y="1357" class="field">timestamp(3) ?</text><rect x="1360" y="848" width="530" height="558" fill="white" stroke="black" stroke-width="1.5"/><text x="1372" y="875" class="title">financing_detail</text><path d="M 1360 886 H 1890" stroke="black"/><text x="1370" y="907" class="field">PK</text><text x="1445" y="907" class="field">id</text><text x="1695" y="907" class="field">char(36)</text><text x="1370" y="932" class="field">FK/UK</text><text x="1445" y="932" class="field">application_id</text><text x="1695" y="932" class="field">char(36)</text><text x="1370" y="957" class="field"></text><text x="1445" y="957" class="field">row_position</text><text x="1695" y="957" class="field">int</text><text x="1370" y="982" class="field"></text><text x="1445" y="982" class="field">facility_purpose</text><text x="1695" y="982" class="field">text ?</text><text x="1370" y="1007" class="field"></text><text x="1445" y="1007" class="field">purpose_detail</text><text x="1695" y="1007" class="field">text ?</text><text x="1370" y="1032" class="field"></text><text x="1445" y="1032" class="field">financing_method</text><text x="1695" y="1032" class="field">text ?</text><text x="1370" y="1057" class="field"></text><text x="1445" y="1057" class="field">currency</text><text x="1695" y="1057" class="field">text ?</text><text x="1370" y="1082" class="field"></text><text x="1445" y="1082" class="field">financing_value</text><text x="1695" y="1082" class="field">decimal(20,2) ?</text><text x="1370" y="1107" class="field"></text><text x="1445" y="1107" class="field">down_payment_value</text><text x="1695" y="1107" class="field">decimal(20,2) ?</text><text x="1370" y="1132" class="field"></text><text x="1445" y="1132" class="field">security_deposit</text><text x="1695" y="1132" class="field">decimal(20,2) ?</text><text x="1370" y="1157" class="field"></text><text x="1445" y="1157" class="field">interest_rate</text><text x="1695" y="1157" class="field">decimal(20,2) ?</text><text x="1370" y="1182" class="field"></text><text x="1445" y="1182" class="field">tenor_months</text><text x="1695" y="1182" class="field">decimal(20,2) ?</text><text x="1370" y="1207" class="field"></text><text x="1445" y="1207" class="field">payment_method</text><text x="1695" y="1207" class="field">text ?</text><text x="1370" y="1232" class="field"></text><text x="1445" y="1232" class="field">application_source</text><text x="1695" y="1232" class="field">text ?</text><text x="1370" y="1257" class="field"></text><text x="1445" y="1257" class="field">terms_notes</text><text x="1695" y="1257" class="field">text ?</text><text x="1370" y="1282" class="field"></text><text x="1445" y="1282" class="field">estimated_monthly_installment</text><text x="1695" y="1282" class="field">decimal(20,2) ?</text><text x="1370" y="1307" class="field"></text><text x="1445" y="1307" class="field">payload</text><text x="1695" y="1307" class="field">json</text><text x="1370" y="1332" class="field"></text><text x="1445" y="1332" class="field">created_at</text><text x="1695" y="1332" class="field">timestamp(3)</text><text x="1370" y="1357" class="field"></text><text x="1445" y="1357" class="field">updated_at</text><text x="1695" y="1357" class="field">timestamp(3) ?</text><text x="1370" y="1382" class="field"></text><text x="1445" y="1382" class="field">deleted_at</text><text x="1695" y="1382" class="field">timestamp(3) ?</text><rect x="2000" y="848" width="530" height="483" fill="white" stroke="black" stroke-width="1.5"/><text x="2012" y="875" class="title">equipment_units</text><path d="M 2000 886 H 2530" stroke="black"/><text x="2010" y="907" class="field">PK</text><text x="2085" y="907" class="field">id</text><text x="2335" y="907" class="field">char(36)</text><text x="2010" y="932" class="field">FK</text><text x="2085" y="932" class="field">application_id</text><text x="2335" y="932" class="field">char(36)</text><text x="2010" y="957" class="field">FK</text><text x="2085" y="957" class="field">financing_detail_id</text><text x="2335" y="957" class="field">char(36)</text><text x="2010" y="982" class="field"></text><text x="2085" y="982" class="field">row_position</text><text x="2335" y="982" class="field">int</text><text x="2010" y="1007" class="field"></text><text x="2085" y="1007" class="field">asset_name</text><text x="2335" y="1007" class="field">text ?</text><text x="2010" y="1032" class="field"></text><text x="2085" y="1032" class="field">unit_category</text><text x="2335" y="1032" class="field">text ?</text><text x="2010" y="1057" class="field"></text><text x="2085" y="1057" class="field">brand</text><text x="2335" y="1057" class="field">text ?</text><text x="2010" y="1082" class="field"></text><text x="2085" y="1082" class="field">unit_type</text><text x="2335" y="1082" class="field">text ?</text><text x="2010" y="1107" class="field"></text><text x="2085" y="1107" class="field">model_name</text><text x="2335" y="1107" class="field">text ?</text><text x="2010" y="1132" class="field"></text><text x="2085" y="1132" class="field">class_ton</text><text x="2335" y="1132" class="field">decimal(20,2) ?</text><text x="2010" y="1157" class="field"></text><text x="2085" y="1157" class="field">quantity</text><text x="2335" y="1157" class="field">decimal(20,2) ?</text><text x="2010" y="1182" class="field"></text><text x="2085" y="1182" class="field">years</text><text x="2335" y="1182" class="field">decimal(20,2) ?</text><text x="2010" y="1207" class="field"></text><text x="2085" y="1207" class="field">specifications</text><text x="2335" y="1207" class="field">text ?</text><text x="2010" y="1232" class="field"></text><text x="2085" y="1232" class="field">payload</text><text x="2335" y="1232" class="field">json</text><text x="2010" y="1257" class="field"></text><text x="2085" y="1257" class="field">created_at</text><text x="2335" y="1257" class="field">timestamp(3)</text><text x="2010" y="1282" class="field"></text><text x="2085" y="1282" class="field">updated_at</text><text x="2335" y="1282" class="field">timestamp(3) ?</text><text x="2010" y="1307" class="field"></text><text x="2085" y="1307" class="field">deleted_at</text><text x="2335" y="1307" class="field">timestamp(3) ?</text><rect x="80" y="1571" width="530" height="433" fill="white" stroke="black" stroke-width="1.5"/><text x="92" y="1598" class="title">akta_pendirian</text><path d="M 80 1609 H 610" stroke="black"/><text x="90" y="1630" class="field">PK</text><text x="165" y="1630" class="field">id</text><text x="415" y="1630" class="field">char(36)</text><text x="90" y="1655" class="field">FK/UK</text><text x="165" y="1655" class="field">akta_id</text><text x="415" y="1655" class="field">varchar(100)</text><text x="90" y="1680" class="field">FK</text><text x="165" y="1680" class="field">application_id</text><text x="415" y="1680" class="field">char(36)</text><text x="90" y="1705" class="field"></text><text x="165" y="1705" class="field">nomor_akta</text><text x="415" y="1705" class="field">varchar(1000) ?</text><text x="90" y="1730" class="field"></text><text x="165" y="1730" class="field">tanggal_akta</text><text x="415" y="1730" class="field">date ?</text><text x="90" y="1755" class="field"></text><text x="165" y="1755" class="field">nomor_sk_menteri</text><text x="415" y="1755" class="field">varchar(1000) ?</text><text x="90" y="1780" class="field"></text><text x="165" y="1780" class="field">tanggal_sk_menteri</text><text x="415" y="1780" class="field">date ?</text><text x="90" y="1805" class="field"></text><text x="165" y="1805" class="field">representative</text><text x="415" y="1805" class="field">text ?</text><text x="90" y="1830" class="field"></text><text x="165" y="1830" class="field">pemegang_saham_perusahaan</text><text x="415" y="1830" class="field">text ?</text><text x="90" y="1855" class="field"></text><text x="165" y="1855" class="field">kategori_remarks</text><text x="415" y="1855" class="field">varchar(150) ?</text><text x="90" y="1880" class="field"></text><text x="165" y="1880" class="field">remarks</text><text x="415" y="1880" class="field">text ?</text><text x="90" y="1905" class="field"></text><text x="165" y="1905" class="field">payload</text><text x="415" y="1905" class="field">json</text><text x="90" y="1930" class="field"></text><text x="165" y="1930" class="field">created_at</text><text x="415" y="1930" class="field">timestamp(3)</text><text x="90" y="1955" class="field"></text><text x="165" y="1955" class="field">updated_at</text><text x="415" y="1955" class="field">timestamp(3) ?</text><text x="90" y="1980" class="field"></text><text x="165" y="1980" class="field">deleted_at</text><text x="415" y="1980" class="field">timestamp(3) ?</text><rect x="720" y="1571" width="530" height="508" fill="white" stroke="black" stroke-width="1.5"/><text x="732" y="1598" class="title">daftar_akta</text><path d="M 720 1609 H 1250" stroke="black"/><text x="730" y="1630" class="field">PK</text><text x="805" y="1630" class="field">id</text><text x="1055" y="1630" class="field">varchar(100)</text><text x="730" y="1655" class="field">FK</text><text x="805" y="1655" class="field">application_id</text><text x="1055" y="1655" class="field">char(36)</text><text x="730" y="1680" class="field"></text><text x="805" y="1680" class="field">akta</text><text x="1055" y="1680" class="field">varchar(30)</text><text x="730" y="1705" class="field"></text><text x="805" y="1705" class="field">nomor_akta</text><text x="1055" y="1705" class="field">varchar(1000)</text><text x="730" y="1730" class="field"></text><text x="805" y="1730" class="field">tanggal</text><text x="1055" y="1730" class="field">date</text><text x="730" y="1755" class="field"></text><text x="805" y="1755" class="field">status</text><text x="1055" y="1755" class="field">varchar(30)</text><text x="730" y="1780" class="field"></text><text x="805" y="1780" class="field">berlaku_sampai</text><text x="1055" y="1780" class="field">date ?</text><text x="730" y="1805" class="field"></text><text x="805" y="1805" class="field">sk_menteri</text><text x="1055" y="1805" class="field">varchar(1000) ?</text><text x="730" y="1830" class="field"></text><text x="805" y="1830" class="field">tanggal_sk_menteri</text><text x="1055" y="1830" class="field">date ?</text><text x="730" y="1855" class="field"></text><text x="805" y="1855" class="field">kategori_remarks</text><text x="1055" y="1855" class="field">varchar(150) ?</text><text x="730" y="1880" class="field"></text><text x="805" y="1880" class="field">stakeholders</text><text x="1055" y="1880" class="field">int</text><text x="730" y="1905" class="field"></text><text x="805" y="1905" class="field">jumlah_shareholder</text><text x="1055" y="1905" class="field">int</text><text x="730" y="1930" class="field"></text><text x="805" y="1930" class="field">total_kepemilikan</text><text x="1055" y="1930" class="field">decimal(7,2)</text><text x="730" y="1955" class="field"></text><text x="805" y="1955" class="field">is_selected</text><text x="1055" y="1955" class="field">tinyint(1)</text><text x="730" y="1980" class="field"></text><text x="805" y="1980" class="field">payload</text><text x="1055" y="1980" class="field">json</text><text x="730" y="2005" class="field"></text><text x="805" y="2005" class="field">created_at</text><text x="1055" y="2005" class="field">timestamp(3)</text><text x="730" y="2030" class="field"></text><text x="805" y="2030" class="field">updated_at</text><text x="1055" y="2030" class="field">timestamp(3) ?</text><text x="730" y="2055" class="field"></text><text x="805" y="2055" class="field">deleted_at</text><text x="1055" y="2055" class="field">timestamp(3) ?</text><rect x="1360" y="1571" width="530" height="433" fill="white" stroke="black" stroke-width="1.5"/><text x="1372" y="1598" class="title">akta_perubahan</text><path d="M 1360 1609 H 1890" stroke="black"/><text x="1370" y="1630" class="field">PK</text><text x="1445" y="1630" class="field">id</text><text x="1695" y="1630" class="field">char(36)</text><text x="1370" y="1655" class="field">FK/UK</text><text x="1445" y="1655" class="field">akta_id</text><text x="1695" y="1655" class="field">varchar(100)</text><text x="1370" y="1680" class="field">FK</text><text x="1445" y="1680" class="field">application_id</text><text x="1695" y="1680" class="field">char(36)</text><text x="1370" y="1705" class="field"></text><text x="1445" y="1705" class="field">nomor_akta</text><text x="1695" y="1705" class="field">varchar(1000) ?</text><text x="1370" y="1730" class="field"></text><text x="1445" y="1730" class="field">tanggal_akta</text><text x="1695" y="1730" class="field">date ?</text><text x="1370" y="1755" class="field"></text><text x="1445" y="1755" class="field">nomor_sk_menteri</text><text x="1695" y="1755" class="field">varchar(1000) ?</text><text x="1370" y="1780" class="field"></text><text x="1445" y="1780" class="field">tanggal_sk_menteri</text><text x="1695" y="1780" class="field">date ?</text><text x="1370" y="1805" class="field"></text><text x="1445" y="1805" class="field">representative</text><text x="1695" y="1805" class="field">text ?</text><text x="1370" y="1830" class="field"></text><text x="1445" y="1830" class="field">pemegang_saham_perusahaan</text><text x="1695" y="1830" class="field">text ?</text><text x="1370" y="1855" class="field"></text><text x="1445" y="1855" class="field">kategori_remarks</text><text x="1695" y="1855" class="field">varchar(150) ?</text><text x="1370" y="1880" class="field"></text><text x="1445" y="1880" class="field">remarks</text><text x="1695" y="1880" class="field">text ?</text><text x="1370" y="1905" class="field"></text><text x="1445" y="1905" class="field">payload</text><text x="1695" y="1905" class="field">json</text><text x="1370" y="1930" class="field"></text><text x="1445" y="1930" class="field">created_at</text><text x="1695" y="1930" class="field">timestamp(3)</text><text x="1370" y="1955" class="field"></text><text x="1445" y="1955" class="field">updated_at</text><text x="1695" y="1955" class="field">timestamp(3) ?</text><text x="1370" y="1980" class="field"></text><text x="1445" y="1980" class="field">deleted_at</text><text x="1695" y="1980" class="field">timestamp(3) ?</text><rect x="2000" y="1571" width="530" height="983" fill="white" stroke="black" stroke-width="1.5"/><text x="2012" y="1598" class="title">legal_stakeholder</text><path d="M 2000 1609 H 2530" stroke="black"/><text x="2010" y="1630" class="field">PK</text><text x="2085" y="1630" class="field">id</text><text x="2335" y="1630" class="field">char(36)</text><text x="2010" y="1655" class="field">FK</text><text x="2085" y="1655" class="field">akta_id</text><text x="2335" y="1655" class="field">varchar(100)</text><text x="2010" y="1680" class="field">FK</text><text x="2085" y="1680" class="field">application_id</text><text x="2335" y="1680" class="field">char(36)</text><text x="2010" y="1705" class="field"></text><text x="2085" y="1705" class="field">representative_type</text><text x="2335" y="1705" class="field">text ?</text><text x="2010" y="1730" class="field"></text><text x="2085" y="1730" class="field">stakeholder_type</text><text x="2335" y="1730" class="field">text ?</text><text x="2010" y="1755" class="field"></text><text x="2085" y="1755" class="field">signatory</text><text x="2335" y="1755" class="field">text ?</text><text x="2010" y="1780" class="field"></text><text x="2085" y="1780" class="field">id_type</text><text x="2335" y="1780" class="field">text ?</text><text x="2010" y="1805" class="field"></text><text x="2085" y="1805" class="field">id_number</text><text x="2335" y="1805" class="field">text ?</text><text x="2010" y="1830" class="field"></text><text x="2085" y="1830" class="field">title</text><text x="2335" y="1830" class="field">text ?</text><text x="2010" y="1855" class="field"></text><text x="2085" y="1855" class="field">first_name</text><text x="2335" y="1855" class="field">text ?</text><text x="2010" y="1880" class="field"></text><text x="2085" y="1880" class="field">middle_name</text><text x="2335" y="1880" class="field">text ?</text><text x="2010" y="1905" class="field"></text><text x="2085" y="1905" class="field">last_name</text><text x="2335" y="1905" class="field">text ?</text><text x="2010" y="1930" class="field"></text><text x="2085" y="1930" class="field">date_of_birth</text><text x="2335" y="1930" class="field">date ?</text><text x="2010" y="1955" class="field"></text><text x="2085" y="1955" class="field">age_years</text><text x="2335" y="1955" class="field">decimal(20,2) ?</text><text x="2010" y="1980" class="field"></text><text x="2085" y="1980" class="field">age_months</text><text x="2335" y="1980" class="field">decimal(20,2) ?</text><text x="2010" y="2005" class="field"></text><text x="2085" y="2005" class="field">marital_status</text><text x="2335" y="2005" class="field">text ?</text><text x="2010" y="2030" class="field"></text><text x="2085" y="2030" class="field">designation</text><text x="2335" y="2030" class="field">text ?</text><text x="2010" y="2055" class="field"></text><text x="2085" y="2055" class="field">email</text><text x="2335" y="2055" class="field">text ?</text><text x="2010" y="2080" class="field"></text><text x="2085" y="2080" class="field">mobile_phone</text><text x="2335" y="2080" class="field">text ?</text><text x="2010" y="2105" class="field"></text><text x="2085" y="2105" class="field">gender</text><text x="2335" y="2105" class="field">text ?</text><text x="2010" y="2130" class="field"></text><text x="2085" y="2130" class="field">share_percentage</text><text x="2335" y="2130" class="field">decimal(20,2) ?</text><text x="2010" y="2155" class="field"></text><text x="2085" y="2155" class="field">deposited_capital</text><text x="2335" y="2155" class="field">decimal(20,2) ?</text><text x="2010" y="2180" class="field"></text><text x="2085" y="2180" class="field">primary_capital</text><text x="2335" y="2180" class="field">decimal(20,2) ?</text><text x="2010" y="2205" class="field"></text><text x="2085" y="2205" class="field">citizenship</text><text x="2335" y="2205" class="field">text ?</text><text x="2010" y="2230" class="field"></text><text x="2085" y="2230" class="field">country</text><text x="2335" y="2230" class="field">text ?</text><text x="2010" y="2255" class="field"></text><text x="2085" y="2255" class="field">province</text><text x="2335" y="2255" class="field">text ?</text><text x="2010" y="2280" class="field"></text><text x="2085" y="2280" class="field">city_regency</text><text x="2335" y="2280" class="field">text ?</text><text x="2010" y="2305" class="field"></text><text x="2085" y="2305" class="field">district</text><text x="2335" y="2305" class="field">text ?</text><text x="2010" y="2330" class="field"></text><text x="2085" y="2330" class="field">village</text><text x="2335" y="2330" class="field">text ?</text><text x="2010" y="2355" class="field"></text><text x="2085" y="2355" class="field">rw</text><text x="2335" y="2355" class="field">text ?</text><text x="2010" y="2380" class="field"></text><text x="2085" y="2380" class="field">rt</text><text x="2335" y="2380" class="field">text ?</text><text x="2010" y="2405" class="field"></text><text x="2085" y="2405" class="field">address</text><text x="2335" y="2405" class="field">text ?</text><text x="2010" y="2430" class="field"></text><text x="2085" y="2430" class="field">postal_code</text><text x="2335" y="2430" class="field">text ?</text><text x="2010" y="2455" class="field"></text><text x="2085" y="2455" class="field">payload</text><text x="2335" y="2455" class="field">json</text><text x="2010" y="2480" class="field"></text><text x="2085" y="2480" class="field">created_at</text><text x="2335" y="2480" class="field">timestamp(3)</text><text x="2010" y="2505" class="field"></text><text x="2085" y="2505" class="field">updated_at</text><text x="2335" y="2505" class="field">timestamp(3) ?</text><text x="2010" y="2530" class="field"></text><text x="2085" y="2530" class="field">deleted_at</text><text x="2335" y="2530" class="field">timestamp(3) ?</text><rect x="80" y="2694" width="530" height="133" fill="white" stroke="black" stroke-width="1.5"/><text x="92" y="2721" class="title">ui_master_data</text><path d="M 80 2732 H 610" stroke="black"/><text x="90" y="2753" class="field">PK</text><text x="165" y="2753" class="field">id</text><text x="415" y="2753" class="field">char(36)</text><text x="90" y="2778" class="field"></text><text x="165" y="2778" class="field">payload</text><text x="415" y="2778" class="field">json</text><text x="90" y="2803" class="field"></text><text x="165" y="2803" class="field">created_at</text><text x="415" y="2803" class="field">timestamp(3)</text><text x="80" y="2922" class="field">Live schema snapshot: 2 October 2026 · 13 tables · 15 declared foreign keys · ui_master_data has no declared relationships</text></svg>